<?xml version="1.0" standalone="no"?>
<!DOCTYPE svg PUBLIC "-//W3C//DTD SVG 20010904//EN"
 "http://www.w3.org/TR/2001/REC-SVG-20010904/DTD/svg10.dtd">
<svg version="1.0" xmlns="http://www.w3.org/2000/svg"
 width="256.000000pt" height="256.000000pt" viewBox="0 0 256.000000 256.000000"
 preserveAspectRatio="xMidYMid meet">
<metadata>
Created by potrace 1.11, written by Peter Selinger 2001-2013
</metadata>
<g transform="translate(0.000000,256.000000) scale(0.100000,-0.100000)"
fill="#000000" stroke="none">
<path d="M534 1959 c-16 -5 -47 -25 -67 -45 -128 -128 -27 -346 153 -329 128
12 207 136 165 258 -34 98 -142 148 -251 116z"/>
<path d="M1875 1951 c-49 -22 -68 -43 -94 -101 -69 -157 97 -321 254 -251 112
50 151 175 87 280 -50 83 -157 114 -247 72z"/>
<path d="M859 1123 c-7 -285 2 -386 42 -468 58 -119 172 -176 359 -181 122 -3
182 7 266 47 91 43 151 120 169 219 4 19 8 122 9 228 l2 192 -423 0 -423 0 -1
-37z"/>
</g>
</svg>
