<?xml version="1.0" standalone="no"?>
<!DOCTYPE svg PUBLIC "-//W3C//DTD SVG 20010904//EN"
 "http://www.w3.org/TR/2001/REC-SVG-20010904/DTD/svg10.dtd">
<svg version="1.0" xmlns="http://www.w3.org/2000/svg"
 width="160.000000pt" height="160.000000pt" viewBox="0 0 160.000000 160.000000"
 preserveAspectRatio="xMidYMid meet">
<metadata>
Created by potrace 1.11, written by Peter Selinger 2001-2013
</metadata>
<g transform="translate(0.000000,160.000000) scale(0.100000,-0.100000)"
fill="#000000" stroke="none">
<path d="M419 1252 c-27 -13 -51 -32 -54 -43 -4 -10 -10 -19 -14 -19 -9 0 -10
-7 -14 -67 -2 -24 0 -43 5 -43 4 0 5 -7 2 -15 -4 -8 -1 -15 5 -15 6 0 11 -4
11 -10 0 -12 40 -54 40 -42 0 4 4 1 8 -6 18 -27 108 -31 161 -8 40 19 87 78
75 97 -4 7 -3 9 4 6 23 -15 4 83 -24 122 -48 66 -126 83 -205 43z"/>
<path d="M1089 1270 c-93 -27 -141 -135 -97 -220 72 -141 297 -94 301 63 2
107 -102 187 -204 157z"/>
<path d="M430 760 c0 -6 -8 -10 -17 -8 -11 2 -17 -2 -15 -10 1 -8 -2 -11 -7
-8 -13 9 -43 -24 -37 -40 3 -9 0 -11 -11 -7 -13 5 -15 2 -11 -15 4 -12 3 -22
-2 -22 -4 0 -6 -21 -5 -46 3 -36 14 -61 52 -116 26 -39 59 -79 72 -89 13 -11
20 -19 16 -19 -12 0 86 -63 150 -97 101 -53 272 -81 369 -60 36 8 99 49 137
90 31 35 86 136 94 177 13 60 17 121 11 154 -8 41 -60 100 -81 92 -9 -3 -12 0
-9 8 3 8 -3 12 -18 11 -13 -1 -26 3 -30 9 -5 8 -8 7 -8 -1 0 -7 -7 -10 -15 -7
-8 4 -27 -2 -41 -11 -15 -9 -23 -11 -19 -4 5 8 4 10 -3 5 -7 -4 -12 -14 -12
-22 0 -8 -4 -13 -9 -10 -5 3 -18 -9 -29 -28 -18 -31 -25 -51 -37 -115 -8 -42
-21 -49 -73 -40 -59 11 -145 54 -183 93 -16 16 -29 33 -29 36 0 12 -64 76 -88
89 -12 7 -26 9 -31 6 -5 -3 -11 1 -14 7 -3 10 -9 10 -27 0 -12 -8 -19 -9 -15
-3 3 6 -1 11 -9 11 -9 0 -16 -5 -16 -10z"/>
</g>
</svg>
