<?xml version="1.0" standalone="no"?>
<!DOCTYPE svg PUBLIC "-//W3C//DTD SVG 20010904//EN"
 "http://www.w3.org/TR/2001/REC-SVG-20010904/DTD/svg10.dtd">
<svg version="1.0" xmlns="http://www.w3.org/2000/svg"
 width="616.000000pt" height="616.000000pt" viewBox="0 0 616.000000 616.000000"
 preserveAspectRatio="xMidYMid meet">
<metadata>
Created by potrace 1.11, written by Peter Selinger 2001-2013
</metadata>
<g transform="translate(0.000000,616.000000) scale(0.100000,-0.100000)"
fill="#000000" stroke="none">
<path d="M4837 6049 c-32 -3 -65 -13 -75 -22 -9 -8 -28 -18 -42 -22 -14 -4
-53 -35 -88 -69 -34 -33 -86 -74 -115 -91 -52 -29 -53 -29 -222 -31 l-170 -2
-90 -56 c-76 -48 -134 -101 -379 -348 -158 -161 -299 -308 -311 -329 -13 -20
-53 -67 -89 -104 -37 -37 -70 -73 -74 -80 -4 -7 -41 -48 -82 -91 -41 -44 -74
-81 -73 -84 1 -3 -5 -9 -13 -13 -8 -4 -14 -15 -14 -22 0 -8 -4 -15 -10 -15 -5
0 -10 -3 -10 -7 0 -5 18 -9 41 -10 23 -1 49 -9 58 -17 10 -9 21 -13 25 -9 4 4
11 1 17 -7 7 -13 10 -13 18 -1 7 11 10 11 17 -1 5 -8 27 -27 49 -43 22 -17 42
-32 45 -36 3 -3 25 -13 49 -23 24 -9 54 -24 65 -32 11 -8 30 -14 41 -14 12 0
40 -14 63 -31 49 -36 91 -35 93 4 1 21 1 21 9 -3 4 -14 8 -19 9 -11 1 11 4 11
17 0 15 -13 17 -11 12 19 -3 21 -1 31 6 29 6 -2 10 -11 8 -21 -2 -9 1 -16 6
-16 14 0 23 43 10 51 -12 8 -2 29 13 29 6 0 8 -4 5 -9 -4 -5 -2 -21 4 -35 6
-17 6 -26 0 -26 -6 0 -10 -7 -10 -15 0 -8 -7 -15 -15 -15 -8 0 -15 -3 -15 -8
0 -12 39 -42 55 -42 8 0 15 -4 15 -10 0 -5 9 -10 20 -10 11 0 20 -4 20 -10 0
-5 7 -10 16 -10 9 0 18 -9 21 -20 5 -21 36 -36 66 -31 9 1 17 -2 17 -8 0 -5
-8 -12 -17 -14 -11 -3 -7 -5 10 -6 16 0 26 -5 22 -11 -5 -9 14 -15 37 -11 3 0
5 -11 3 -25 -2 -17 2 -24 11 -20 8 3 11 0 8 -8 -3 -8 -1 -17 5 -21 6 -3 11 -1
11 4 0 6 5 11 11 11 6 0 8 -9 4 -20 -4 -14 -2 -20 8 -20 7 0 19 -11 25 -25 6
-14 16 -25 22 -25 5 0 9 -6 8 -12 -2 -7 7 -14 20 -16 12 -2 22 -8 22 -13 0 -6
5 -7 10 -4 6 3 13 -1 16 -9 3 -9 12 -16 19 -16 14 0 25 -22 25 -51 0 -25 39
-79 57 -79 7 0 13 -12 13 -27 0 -16 4 -23 8 -17 14 21 37 21 47 0 11 -23 42
-29 37 -8 -1 6 3 12 9 12 5 0 7 5 4 10 -3 6 2 10 12 10 11 0 25 6 33 13 12 10
12 9 2 -4 -6 -9 -9 -19 -5 -23 4 -4 3 -10 -3 -14 -5 -4 -18 -20 -28 -35 -17
-28 -17 -29 1 -23 21 6 63 -25 63 -48 0 -9 -3 -15 -7 -14 -5 2 -9 -1 -10 -6
-1 -5 -5 -12 -11 -15 -5 -3 -21 -27 -36 -52 -22 -39 -24 -48 -11 -53 21 -8 19
-28 -5 -54 -26 -28 -17 -28 22 -1 25 18 32 19 40 8 6 -10 7 -7 3 11 -6 25 -6
25 12 5 10 -12 26 -24 37 -28 10 -4 16 -13 13 -21 -7 -18 27 -27 104 -28 30 0
59 -3 64 -7 6 -3 16 -6 23 -7 7 -1 21 -13 32 -26 16 -19 19 -20 20 -5 0 9 4
17 9 17 5 0 14 12 20 28 7 15 25 50 41 77 16 28 46 84 67 125 20 41 41 77 45
81 18 12 126 241 121 255 -3 8 -2 14 3 13 21 -4 28 2 14 11 -13 8 -11 11 7 16
13 4 20 10 17 15 -3 5 -1 9 4 9 5 0 16 15 23 33 7 17 24 43 36 57 13 14 23 32
23 42 0 9 5 18 12 20 8 3 8 9 0 24 -7 12 -11 14 -12 5 0 -8 -2 -12 -5 -9 -8 8
22 72 42 91 11 9 23 14 26 10 10 -10 8 12 -2 23 -5 5 -5 18 -1 29 8 19 8 19
17 -4 6 -16 12 -20 17 -13 4 6 2 22 -5 34 -9 16 -9 23 0 26 6 2 11 9 11 15 0
7 7 24 14 39 10 19 11 30 4 34 -7 4 -5 10 6 16 14 8 56 77 56 93 0 3 -9 1 -19
-5 -25 -13 -41 -13 -41 0 0 6 11 10 25 10 26 0 35 25 13 33 -10 3 -10 7 -1 18
6 8 13 25 15 39 2 15 9 24 17 22 12 -3 12 0 2 12 -7 8 -10 24 -6 36 4 14 2 20
-9 20 -18 0 -29 16 -21 31 5 6 13 3 22 -10 8 -12 23 -21 34 -21 19 0 19 1 5
16 -21 20 -21 41 0 23 13 -10 17 -10 25 2 11 17 11 21 0 37 -6 10 -10 10 -21
-3 -7 -8 -23 -15 -36 -15 -22 0 -23 2 -17 48 7 51 7 55 4 92 -1 20 -3 22 -11
10 -8 -11 -9 -7 -4 15 3 17 7 35 9 42 2 7 -2 10 -9 7 -9 -3 -16 6 -20 27 -6
31 -7 32 -26 14 -18 -16 -20 -16 -20 -2 0 10 5 17 10 17 6 0 10 9 10 20 0 26
21 72 40 87 12 10 13 14 2 21 -11 8 -11 10 1 15 7 3 20 27 27 54 7 26 19 55
26 64 8 8 17 31 20 50 4 19 10 39 14 44 8 10 17 51 27 116 6 46 -12 134 -37
182 -11 20 -20 43 -20 51 0 32 -106 117 -205 165 -45 22 -171 32 -268 20z m47
-587 c3 -5 -1 -9 -9 -9 -8 0 -12 4 -9 9 3 4 7 8 9 8 2 0 6 -4 9 -8z m179 -22
c14 -37 24 -38 30 -2 l4 27 2 -28 c2 -40 -23 -45 -53 -10 -30 33 -32 43 -10
43 9 0 21 -13 27 -30z m37 -82 c0 -9 4 -8 10 2 6 9 10 10 10 3 0 -19 -17 -24
-30 -8 -9 10 -9 15 -1 15 6 0 11 -6 11 -12z m57 -10 c-3 -8 -6 -5 -6 6 -1 11
2 17 5 13 3 -3 4 -12 1 -19z m-94 -18 c-3 -11 -9 -17 -15 -14 -5 3 -4 12 3 20
16 19 18 18 12 -6z m127 10 c0 -5 -5 -10 -11 -10 -5 0 -7 5 -4 10 3 6 8 10 11
10 2 0 4 -4 4 -10z m0 -30 c0 -5 -4 -10 -10 -10 -5 0 -10 5 -10 10 0 6 5 10
10 10 6 0 10 -4 10 -10z m-63 -16 c-3 -3 -12 -4 -19 -1 -8 3 -5 6 6 6 11 1 17
-2 13 -5z m7 -101 c-6 -19 -13 -37 -33 -87 -10 -23 -9 -31 1 -38 10 -6 10 -10
-2 -18 -24 -16 -33 -12 -27 13 18 74 26 96 42 120 20 31 27 34 19 10z m3 -83
c1 -18 -2 -28 -7 -25 -12 7 -14 55 -2 55 4 0 8 -14 9 -30z m-67 -124 c-7 -7
-15 -5 -22 3 -10 11 -10 13 0 7 7 -5 12 -1 12 11 0 15 2 16 10 3 6 -9 6 -18 0
-24z m-898 -40 c-3 -5 -9 -1 -13 10 -12 31 -10 39 5 19 8 -11 12 -24 8 -29z
m73 34 c3 -5 1 -10 -4 -10 -6 0 -11 5 -11 10 0 6 2 10 4 10 3 0 8 -4 11 -10z
m145 0 c0 -5 -5 -10 -11 -10 -5 0 -7 5 -4 10 3 6 8 10 11 10 2 0 4 -4 4 -10z
m-10 -34 c0 -7 -40 -14 -44 -7 -3 4 6 8 20 9 13 1 24 0 24 -2z m-100 -42 c0
-8 7 -14 15 -14 8 0 15 -7 15 -16 0 -13 -6 -15 -27 -10 -16 4 -40 10 -56 13
-23 5 -53 26 -30 22 4 -1 20 -1 35 0 20 1 26 5 22 16 -5 11 -2 13 10 9 9 -3
16 -12 16 -20z m696 -29 c-3 -8 -10 -15 -15 -15 -7 0 -6 10 1 26 12 26 25 16
14 -11z m-370 -4 c-4 -6 -13 -8 -21 -4 -11 4 -14 0 -9 -13 6 -15 4 -16 -6 -7
-15 14 -3 36 16 29 8 -3 14 0 14 6 0 6 3 9 6 5 3 -3 3 -10 0 -16z m413 5 c10
-12 8 -17 -7 -25 -17 -9 -18 -7 -14 14 5 29 6 29 21 11z m-384 -5 c3 -5 2 -12
-3 -15 -5 -3 -9 1 -9 9 0 17 3 19 12 6z m-415 -20 c0 -6 -5 -13 -10 -16 -6 -4
-8 -11 -5 -16 4 -5 -1 -9 -10 -9 -9 0 -14 3 -12 8 2 4 7 15 10 25 7 18 27 24
27 8z m327 -23 c-3 -8 -6 -5 -6 6 -1 11 2 17 5 13 3 -3 4 -12 1 -19z m-472
-28 c3 -5 0 -10 -7 -10 -9 0 -9 -3 2 -10 17 -11 1 -13 -24 -4 -13 5 -14 9 -5
20 14 16 25 18 34 4z m825 -4 c0 -3 -4 -8 -10 -11 -5 -3 -10 -1 -10 4 0 6 5
11 10 11 6 0 10 -2 10 -4z m70 -32 c0 -8 -7 -14 -16 -14 -13 0 -14 3 -5 13 6
8 7 18 3 22 -4 5 -1 5 6 1 6 -4 12 -14 12 -22z m-1040 -14 c0 -5 -4 -10 -10
-10 -5 0 -10 5 -10 10 0 6 5 10 10 10 6 0 10 -4 10 -10z m190 -8 c0 -5 -7 -9
-15 -9 -8 0 -12 4 -9 9 3 4 9 8 15 8 5 0 9 -4 9 -8z m500 -22 c0 -5 -2 -10 -4
-10 -3 0 -8 5 -11 10 -3 6 -1 10 4 10 6 0 11 -4 11 -10z m80 0 c0 -5 -5 -10
-11 -10 -5 0 -7 5 -4 10 3 6 8 10 11 10 2 0 4 -4 4 -10z m170 -14 c0 -2 -7 -7
-16 -10 -8 -3 -12 -2 -9 4 6 10 25 14 25 6z m-1020 -63 c0 -9 -5 -11 -12 -7
-9 5 -9 2 1 -9 11 -15 11 -17 -2 -17 -8 0 -17 7 -21 15 -6 17 -36 21 -36 4 0
-5 4 -8 9 -5 5 3 11 -12 13 -34 2 -22 0 -40 -4 -40 -5 0 -8 11 -8 25 0 23 -2
24 -25 13 -14 -6 -28 -22 -31 -35 -4 -16 -13 -23 -29 -23 -26 0 -30 -31 -6
-41 11 -4 9 -7 -7 -11 -19 -5 -22 -2 -22 23 0 16 -6 29 -12 30 -10 0 -10 2 0
6 6 2 12 11 12 19 0 8 6 14 13 14 17 0 45 34 52 63 6 22 12 24 61 25 41 0 54
-4 54 -15z m1003 3 c11 -27 -4 -56 -29 -56 -15 0 -24 6 -24 15 0 8 9 15 19 15
11 0 23 5 26 10 4 6 3 10 -2 9 -17 -3 -24 1 -18 11 9 14 22 12 28 -4z m-883
-11 c0 -8 -4 -15 -8 -15 -5 0 -9 7 -9 15 0 8 4 15 9 15 4 0 8 -7 8 -15z m920
1 c0 -3 -4 -8 -10 -11 -5 -3 -10 -1 -10 4 0 6 5 11 10 11 6 0 10 -2 10 -4z
m-10 -61 c0 -8 -7 -15 -15 -15 -8 0 -15 7 -15 15 0 8 7 15 15 15 8 0 15 -7 15
-15z m-1123 -37 c-3 -8 -6 -5 -6 6 -1 11 2 17 5 13 3 -3 4 -12 1 -19z m953 3
c0 -5 -7 -11 -14 -14 -10 -4 -13 -1 -9 9 6 15 23 19 23 5z m-913 -33 c-3 -8
-6 -5 -6 6 -1 11 2 17 5 13 3 -3 4 -12 1 -19z m106 8 c4 -10 1 -13 -8 -9 -8 3
-12 9 -9 14 7 12 11 11 17 -5z m896 -49 c1 -5 -6 -1 -15 7 -8 9 -12 21 -8 28
5 8 10 6 15 -8 4 -10 8 -23 8 -27z m-1059 23 c0 -5 -5 -10 -11 -10 -5 0 -7 5
-4 10 3 6 8 10 11 10 2 0 4 -4 4 -10z m937 -83 c-15 -5 -25 -13 -21 -18 3 -5
0 -9 -5 -9 -15 0 -14 11 5 31 9 10 23 15 32 11 12 -4 10 -8 -11 -15z m46 -42
c-5 -13 -23 -22 -23 -11 0 15 14 35 21 31 4 -3 6 -12 2 -20z m-101 -37 c-6 -6
-7 0 -4 19 5 21 7 23 10 9 2 -10 0 -22 -6 -28z m128 32 c0 -5 -4 -10 -10 -10
-5 0 -10 5 -10 10 0 6 5 10 10 10 6 0 10 -4 10 -10z m-60 -56 c0 -8 -5 -12
-10 -9 -6 4 -8 11 -5 16 9 14 15 11 15 -7z m-7 -41 c-7 -2 -13 -11 -13 -19 0
-9 -4 -12 -10 -9 -5 3 -10 1 -10 -6 0 -7 -3 -10 -6 -7 -10 11 16 48 34 47 10
0 12 -3 5 -6z m17 -27 c0 -3 -4 -8 -10 -11 -5 -3 -10 -1 -10 4 0 6 5 11 10 11
6 0 10 -2 10 -4z m390 -15 c0 -11 -21 -41 -46 -68 -25 -26 -40 -38 -34 -25 6
12 15 22 19 22 8 0 22 32 25 55 1 8 25 34 34 35 1 0 2 -9 2 -19z m-1040 -135
c0 -3 -4 -8 -10 -11 -5 -3 -10 -1 -10 4 0 6 5 11 10 11 6 0 10 -2 10 -4z m453
-19 c3 -8 -1 -14 -8 -14 -7 0 -11 6 -8 14 3 7 6 13 8 13 2 0 5 -6 8 -13z m-17
-39 c4 -7 3 -8 -4 -4 -7 4 -12 2 -12 -5 0 -7 -3 -10 -6 -6 -6 5 3 27 11 27 2
0 7 -5 11 -12z m45 -3 c5 4 6 -1 3 -9 -9 -24 -24 -19 -23 7 0 12 3 16 6 9 2
-6 9 -10 14 -7z m-86 -115 c-3 -5 -14 -10 -23 -9 -14 0 -13 2 3 9 27 11 27 11
20 0z m-40 -80 c3 -5 1 -10 -4 -10 -6 0 -11 5 -11 10 0 6 2 10 4 10 3 0 8 -4
11 -10z"/>
<path d="M3680 4551 c0 -6 9 -9 19 -8 11 0 17 5 15 9 -7 11 -34 10 -34 -1z"/>
<path d="M1899 3358 c-10 -39 -12 -41 -20 -20 -9 23 -43 30 -54 12 -3 -5 -15
-10 -26 -10 -10 0 -24 -9 -31 -20 -16 -25 -28 -26 -29 -2 0 10 -3 12 -6 5 -2
-7 -10 -13 -17 -13 -6 0 -19 -9 -29 -20 -13 -15 -14 -26 -7 -45 8 -22 7 -25
-11 -25 -11 0 -18 4 -14 9 3 5 1 12 -4 16 -6 3 -15 -4 -21 -15 -6 -11 -16 -20
-23 -20 -13 0 -37 -45 -37 -70 0 -9 -20 -34 -45 -55 -25 -22 -52 -45 -59 -52
-8 -7 -16 -10 -19 -7 -3 4 -16 -1 -28 -9 l-22 -16 27 -7 c17 -4 26 -13 26 -26
0 -15 -5 -19 -19 -15 -23 6 -30 1 -65 -45 -16 -21 -32 -36 -36 -33 -5 3 -6 -4
-3 -14 6 -22 -30 -47 -59 -42 -13 2 -18 -5 -18 -22 0 -19 -7 -27 -27 -32 -19
-4 -23 -9 -14 -14 19 -12 1 -19 -46 -16 -44 2 -93 -28 -93 -56 0 -8 -13 -27
-30 -42 -36 -34 -36 -37 -9 -71 15 -19 16 -24 5 -20 -9 3 -16 2 -16 -4 0 -23
241 -243 275 -250 8 -2 15 -10 15 -18 0 -8 7 -14 15 -14 19 0 74 -59 75 -80 0
-13 1 -13 10 0 7 10 10 11 10 2 0 -7 16 -27 36 -45 20 -18 46 -43 58 -56 11
-13 41 -37 66 -54 51 -35 132 -108 126 -114 -2 -2 -16 7 -31 21 -16 15 -32 26
-37 26 -6 0 -23 9 -39 21 -16 11 -29 17 -29 12 0 -4 -5 -1 -10 7 -14 22 -30 0
-32 -44 -1 -20 -5 -39 -10 -42 -4 -3 -6 -16 -3 -30 3 -13 7 -34 10 -47 6 -32
99 -126 165 -167 30 -19 61 -41 69 -48 11 -11 19 -8 47 19 32 31 34 31 34 11
0 -12 -9 -36 -20 -54 -11 -18 -20 -29 -20 -24 0 5 -9 1 -20 -9 -11 -10 -20
-24 -20 -32 0 -7 -13 -37 -30 -66 -33 -59 -38 -76 -15 -57 8 7 13 16 10 20 -3
4 2 13 10 20 20 17 20 -2 -1 -41 -8 -17 -13 -33 -11 -36 3 -2 8 5 12 16 9 28
25 27 25 -1 0 -21 4 -19 35 17 37 43 44 65 20 65 -21 0 -19 13 10 46 14 16 25
33 25 38 0 5 7 17 16 27 15 16 17 16 35 1 10 -9 19 -22 19 -29 0 -7 7 -10 15
-7 10 4 15 0 15 -14 0 -11 -7 -22 -15 -26 -8 -3 -15 -15 -15 -26 0 -12 -4 -19
-9 -15 -6 3 -14 -3 -20 -12 -10 -17 -10 -17 -11 0 0 9 4 17 8 17 4 0 13 15 20
33 10 29 10 30 -3 13 -13 -17 -15 -17 -21 -3 -3 10 -3 25 0 35 6 14 4 14 -12
-3 -11 -11 -23 -31 -26 -45 -6 -23 -6 -23 7 -7 8 9 17 17 21 17 12 0 6 -28
-10 -40 -8 -8 -19 -21 -24 -31 -8 -14 -6 -16 9 -12 12 3 20 -2 24 -16 6 -26 0
-31 -40 -31 -18 0 -33 -4 -33 -9 0 -5 -3 -18 -6 -28 -5 -17 -5 -17 6 0 6 9 15
15 20 12 9 -5 -35 -77 -72 -119 -10 -11 -18 -23 -18 -28 0 -4 -7 -5 -15 -2 -8
4 -15 1 -15 -5 0 -6 -4 -11 -10 -11 -5 0 -10 7 -10 15 0 22 -17 18 -23 -6 -5
-18 -9 -19 -29 -9 -22 11 -22 10 -4 -4 19 -15 19 -16 -4 -36 -13 -11 -20 -23
-17 -26 7 -7 29 12 44 41 7 12 22 20 37 20 14 1 26 0 26 -2 0 -15 -48 -72 -57
-68 -7 2 -15 0 -18 -5 -4 -6 -2 -10 4 -10 12 0 -21 -68 -46 -95 -10 -11 -29
-37 -42 -58 -18 -29 -26 -35 -32 -25 -7 11 -11 10 -19 -2 -13 -20 -13 -43 1
-34 8 4 8 0 0 -15 -10 -17 -14 -19 -25 -9 -11 11 -11 16 0 33 16 22 18 35 5
35 -5 0 -14 -14 -21 -30 -12 -30 -35 -40 -42 -18 -2 6 -4 -5 -4 -26 0 -39 -24
-73 -44 -61 -6 4 -9 16 -7 27 5 16 3 17 -9 7 -12 -9 -12 -15 -2 -27 7 -8 12
-23 10 -34 -4 -25 14 -23 32 4 9 12 16 17 16 10 0 -6 -15 -27 -34 -47 -19 -19
-37 -41 -39 -48 -3 -7 -6 -5 -6 6 -1 10 6 20 14 23 17 7 21 34 5 34 -6 0 -13
-7 -17 -16 -6 -16 -7 -16 -18 -1 -11 15 -14 14 -36 -9 -28 -30 -36 -96 -10
-86 9 3 13 2 9 -2 -5 -7 -27 -13 -52 -15 -4 -1 -5 -13 -2 -29 4 -18 3 -22 -3
-13 -7 11 -12 10 -27 -6 -11 -10 -26 -32 -34 -48 -8 -17 -18 -32 -21 -35 -16
-12 -77 -99 -73 -103 2 -2 -2 -10 -11 -17 -8 -7 -15 -8 -15 -2 0 5 -7 12 -15
16 -13 5 -14 2 -4 -15 8 -17 8 -20 -1 -14 -9 5 -10 1 -5 -16 6 -20 5 -22 -6
-12 -18 18 -40 -36 -32 -82 5 -29 8 -33 20 -24 11 10 12 8 7 -6 -6 -14 -4 -16
6 -10 9 5 11 4 6 -4 -8 -12 38 -74 47 -65 3 3 11 -4 17 -16 7 -13 15 -18 19
-13 3 6 17 14 31 18 21 7 23 6 13 -7 -11 -13 -5 -14 45 -10 31 3 59 9 60 13 2
5 10 9 18 9 9 0 12 4 9 10 -3 5 3 15 14 21 10 7 17 18 14 26 -3 7 2 20 11 28
16 16 21 35 10 35 -10 0 -43 -44 -44 -57 0 -12 -20 -20 -20 -9 0 12 47 85 73
111 15 17 35 45 44 63 9 18 21 31 28 28 7 -2 12 3 11 12 -1 11 6 16 17 15 12
0 16 4 13 12 -7 18 16 65 32 65 6 0 12 6 12 14 0 7 7 19 15 26 13 11 13 15 3
21 -9 6 -4 9 13 9 26 0 45 23 33 41 -3 5 1 9 9 9 8 0 18 7 21 16 5 12 2 15
-10 10 -14 -5 -15 -4 -4 9 7 8 18 15 25 15 10 0 28 27 26 38 -3 10 38 37 52
34 9 -2 17 1 17 7 0 6 9 11 20 11 22 0 27 -15 7 -23 -16 -6 -79 -107 -67 -107
14 0 42 30 59 63 8 15 18 27 23 27 4 0 8 11 8 24 0 15 7 26 18 29 12 2 22 17
25 37 5 23 11 31 22 26 10 -4 15 1 15 15 0 11 4 18 9 14 5 -3 12 -1 16 5 3 5
0 10 -7 10 -7 0 -3 7 9 15 12 8 28 12 37 9 18 -7 21 7 6 22 -6 6 -6 15 0 24 9
13 10 13 10 0 0 -13 2 -13 9 -1 6 9 4 23 -7 39 -16 24 -16 25 5 14 12 -7 23
-17 25 -23 3 -9 9 -9 22 -2 17 10 17 11 -5 28 -22 16 -22 17 -3 12 16 -3 25 4
39 29 10 19 22 34 27 34 12 0 10 -14 -4 -28 -8 -8 -8 -12 -1 -12 14 0 27 29
24 56 -1 12 4 28 12 35 7 8 11 21 9 29 -5 13 -3 13 12 1 14 -12 16 -12 10 3
-5 12 -2 15 10 10 9 -3 16 -2 17 2 3 32 7 52 13 72 11 32 -5 27 -37 -13 -15
-19 -32 -35 -37 -35 -17 0 -11 26 10 45 11 10 20 28 20 39 0 14 3 17 8 9 5 -9
12 -2 20 21 7 19 20 37 28 40 8 3 12 10 9 16 -3 5 0 10 9 10 8 0 17 6 19 13 4
7 6 6 6 -5 1 -12 7 -15 23 -10 22 5 22 5 5 -21 -22 -33 -22 -34 6 -33 14 1 21
-4 19 -13 -2 -10 4 -12 20 -7 13 3 29 6 35 6 9 0 10 7 3 25 -8 22 -7 25 15 27
14 0 31 1 38 2 6 1 14 7 17 14 4 10 11 8 24 -7 19 -21 19 -21 -2 -21 -30 0
-28 -17 3 -22 14 -3 25 -1 25 4 0 6 7 8 15 4 9 -3 15 0 15 9 0 8 -6 15 -14 15
-16 0 -46 26 -46 40 0 5 8 6 18 3 15 -6 15 -5 3 10 -12 15 -11 17 3 17 9 0 16
-7 16 -16 0 -13 3 -14 15 -4 15 13 39 5 30 -11 -4 -5 1 -9 9 -9 21 0 31 -19
16 -33 -15 -15 -43 20 -35 43 4 9 -1 8 -13 -5 -10 -11 -15 -22 -9 -24 5 -2 18
-12 29 -23 14 -14 23 -17 31 -9 7 7 18 2 35 -17 16 -17 27 -22 30 -14 6 18 35
15 54 -5 28 -30 45 -42 71 -48 14 -4 34 -15 46 -26 11 -10 24 -19 29 -19 5 0
18 -11 30 -25 12 -14 33 -25 46 -25 14 0 37 -11 53 -24 23 -19 33 -22 47 -14
16 9 18 8 13 -6 -5 -13 -1 -16 23 -14 17 1 30 8 30 15 0 7 4 13 8 13 5 0 14
10 20 22 7 16 11 18 11 7 1 -23 -21 -83 -33 -91 -16 -11 14 -31 171 -113 74
-39 91 -42 99 -20 9 22 25 18 52 -12 22 -26 24 -26 18 -5 -6 16 -3 22 8 22 9
0 16 5 16 10 0 6 7 10 15 10 8 0 15 4 15 9 0 5 9 11 20 14 14 4 20 14 20 34 0
22 2 25 10 13 5 -8 10 -10 10 -5 0 17 -18 40 -26 32 -4 -3 -7 -20 -8 -35 -1
-16 -6 -28 -12 -25 -5 2 -19 -5 -29 -17 -23 -26 -35 -26 -28 0 3 11 10 20 15
20 6 0 8 11 6 25 -4 20 -1 25 14 25 11 0 16 -4 13 -10 -3 -5 -1 -10 4 -10 15
0 14 13 -1 29 -11 11 -10 14 0 18 10 4 8 9 -5 19 -17 13 -17 13 0 14 16 0 18
5 12 33 -5 24 -4 28 4 17 9 -13 11 -13 11 3 0 9 11 23 25 29 20 9 25 19 25 47
1 32 2 34 14 18 12 -15 15 -15 26 -2 10 12 9 15 -6 16 -14 0 -15 2 -4 6 8 3
23 14 34 25 10 11 24 17 32 14 8 -3 11 0 8 9 -3 8 2 15 13 17 10 2 18 10 19
18 1 8 2 29 2 46 2 28 5 31 30 27 18 -3 23 -2 14 5 -10 7 -10 14 0 38 11 28
14 37 17 59 1 6 6 3 11 -5 9 -13 12 -13 20 2 7 10 17 15 27 11 13 -5 15 -2 9
20 -5 20 -1 32 16 49 12 12 17 23 11 25 -15 5 -4 43 13 43 7 0 18 16 25 35 7
19 16 35 21 35 4 0 4 -7 1 -17 -4 -11 -3 -14 6 -9 6 4 9 16 6 27 -4 10 -2 19
4 19 5 0 19 15 30 34 26 41 28 91 4 100 -15 6 -15 8 -3 17 12 8 10 10 -7 6
-26 -6 -33 20 -8 29 16 7 21 44 6 44 -5 0 -8 13 -6 29 3 20 -4 42 -21 66 -13
20 -24 40 -24 45 0 6 -8 10 -17 10 -10 0 -33 18 -52 40 -19 22 -41 40 -50 41
-12 0 -12 2 -3 6 10 4 7 9 -10 17 -12 7 -22 18 -21 24 2 6 -6 14 -17 17 -11 4
-25 15 -30 26 -7 12 -21 19 -40 19 -19 0 -31 6 -34 18 -3 9 -29 35 -57 57 -28
22 -57 46 -64 53 -8 6 -18 12 -23 12 -6 0 -12 7 -16 15 -3 8 -12 15 -21 15 -8
0 -15 4 -15 9 0 5 -8 11 -17 15 -10 3 -23 8 -29 11 -6 3 -16 -5 -22 -17 -11
-22 -12 -22 -9 7 1 20 -4 33 -15 40 -10 6 -36 23 -58 39 -33 24 -43 27 -50 16
-7 -11 -14 -12 -35 -2 -14 6 -28 19 -31 27 -4 8 -12 15 -19 15 -7 0 -32 22
-57 49 -47 52 -83 76 -98 66 -6 -3 -25 10 -44 31 -19 21 -38 34 -45 30 -14 -9
-77 28 -85 49 -3 8 -12 15 -21 15 -8 0 -15 5 -15 10 0 6 -12 15 -26 20 -14 6
-23 14 -20 19 4 5 -12 12 -35 16 -37 6 -40 9 -35 31 5 17 2 24 -9 24 -8 0 -15
3 -15 8 0 4 -18 16 -40 26 -35 17 -40 24 -40 53 0 30 -20 50 -20 21 0 -7 -5
-5 -11 5 -5 9 -16 17 -23 17 -8 0 -19 7 -26 15 -9 10 -16 12 -20 5 -4 -6 -14
-3 -27 9 -11 10 -29 21 -39 23 -12 2 -19 12 -18 27 1 17 -4 21 -18 18 -10 -3
-16 -1 -13 3 8 13 -46 45 -68 42 -11 -2 -17 1 -13 6 6 10 -30 28 -46 24 -5 -1
-8 3 -8 8 0 6 -7 10 -16 10 -8 0 -12 4 -9 10 4 7 -2 7 -19 0 -17 -6 -26 -6
-29 3 -2 6 -20 11 -40 11 -20 0 -37 3 -37 7 0 4 -8 9 -17 13 -10 3 -23 9 -30
12 -7 3 -16 -11 -24 -38z m-47 -30 c-7 -7 -12 -8 -12 -2 0 14 12 26 19 19 2
-3 -1 -11 -7 -17z m-52 -13 c0 -8 -4 -15 -10 -15 -5 0 -10 7 -10 15 0 8 5 15
10 15 6 0 10 -7 10 -15z m430 -55 c0 -5 -2 -10 -4 -10 -3 0 -8 5 -11 10 -3 6
-1 10 4 10 6 0 11 -4 11 -10z m-567 -67 c-7 -2 -19 -2 -25 0 -7 3 -2 5 12 5
14 0 19 -2 13 -5z m-163 -299 c0 -8 -4 -12 -10 -9 -5 3 -10 10 -10 16 0 5 5 9
10 9 6 0 10 -7 10 -16z m-335 -184 c-3 -5 -11 -10 -16 -10 -6 0 -7 5 -4 10 3
6 11 10 16 10 6 0 7 -4 4 -10z m1555 0 c0 -5 -7 -10 -16 -10 -8 0 -12 5 -9 10
3 6 10 10 16 10 5 0 9 -4 9 -10z m-650 -284 c0 -3 -4 -8 -10 -11 -5 -3 -10 -1
-10 4 0 6 5 11 10 11 6 0 10 -2 10 -4z m-70 -26 c0 -5 -5 -10 -11 -10 -5 0 -7
5 -4 10 3 6 8 10 11 10 2 0 4 -4 4 -10z m35 0 c3 -5 1 -10 -4 -10 -6 0 -11 5
-11 10 0 6 2 10 4 10 3 0 8 -4 11 -10z m-705 -30 c0 -5 -2 -10 -4 -10 -3 0 -8
5 -11 10 -3 6 -1 10 4 10 6 0 11 -4 11 -10z m222 -82 c-6 -6 -15 -8 -19 -4 -4
4 -1 11 7 16 19 12 27 3 12 -12z m228 -18 c-13 -11 -27 -20 -31 -20 -15 0 2
29 19 33 33 9 35 7 12 -13z m70 -5 c0 -8 -4 -15 -9 -15 -15 0 -111 -62 -111
-71 0 -5 -4 -9 -10 -9 -5 0 -10 8 -10 18 0 11 21 27 60 46 33 16 60 32 60 37
0 5 5 9 10 9 6 0 10 -7 10 -15z m-260 -5 c0 -5 -7 -10 -16 -10 -8 0 -12 5 -9
10 3 6 10 10 16 10 5 0 9 -4 9 -10z m375 -80 c-3 -5 -11 -10 -16 -10 -6 0 -7
5 -4 10 3 6 11 10 16 10 6 0 7 -4 4 -10z m1865 -162 c0 -13 -23 -5 -28 10 -2
7 2 10 12 6 9 -3 16 -11 16 -16z m-1970 -68 c0 -5 -5 -10 -11 -10 -5 0 -7 5
-4 10 3 6 8 10 11 10 2 0 4 -4 4 -10z m-292 -44 c-7 -8 -15 -12 -17 -11 -5 6
10 25 20 25 5 0 4 -6 -3 -14z m222 -43 c51 -38 60 -53 19 -31 -26 15 -86 68
-75 68 3 0 29 -17 56 -37z m97 -73 c14 -11 21 -20 16 -20 -6 0 -20 9 -33 20
-13 11 -20 20 -16 20 4 0 19 -9 33 -20z m583 -10 c0 -5 -8 -10 -17 -10 -15 0
-16 2 -3 10 19 12 20 12 20 0z m-822 -45 c-3 -3 -9 2 -12 12 -6 14 -5 15 5 6
7 -7 10 -15 7 -18z m32 -5 c0 -5 -2 -10 -4 -10 -3 0 -8 5 -11 10 -3 6 -1 10 4
10 6 0 11 -4 11 -10z m1546 -117 c-18 -33 -21 -17 -5 24 6 15 13 23 16 16 2
-6 -3 -24 -11 -40z m-1371 -31 c-8 -9 -21 -26 -29 -37 -8 -11 -18 -17 -21 -13
-4 4 0 14 9 23 9 9 21 25 27 36 5 11 14 17 19 14 5 -3 3 -13 -5 -23z m1415 4
c0 -3 -4 -8 -10 -11 -5 -3 -10 -1 -10 4 0 6 5 11 10 11 6 0 10 -2 10 -4z
m-1470 -76 c0 -5 -4 -10 -10 -10 -5 0 -10 5 -10 10 0 6 5 10 10 10 6 0 10 -4
10 -10z m1420 -4 c0 -2 -7 -7 -16 -10 -8 -3 -12 -2 -9 4 6 10 25 14 25 6z
m-1235 -16 c4 -6 11 -7 17 -4 23 14 -15 -37 -42 -58 -23 -16 -27 -25 -19 -35
8 -9 7 -14 -4 -19 -9 -3 -19 -15 -23 -26 -5 -17 -8 -18 -15 -7 -7 9 -8 4 -3
-16 4 -23 3 -26 -5 -15 -10 14 -15 7 -12 -13 1 -4 -3 -16 -9 -26 -12 -23 -60
-34 -60 -15 0 8 5 14 10 14 6 0 10 7 10 15 0 8 5 15 10 15 6 0 10 8 10 18 0
10 11 29 25 42 14 13 25 32 25 42 0 10 5 18 11 18 6 0 20 10 31 23 16 17 18
18 14 4 -3 -10 -2 -15 4 -12 5 3 7 19 3 35 -5 29 9 42 22 20z m333 -49 c3 -32
3 -32 -16 -14 -10 10 -17 20 -15 22 1 2 -5 9 -14 16 -9 7 -13 17 -9 24 13 21
51 -12 54 -48z m-518 5 c0 -18 -28 -41 -38 -31 -4 4 -1 10 6 12 6 3 12 11 12
19 0 8 5 14 10 14 6 0 10 -6 10 -14z m239 0 c9 -11 6 -15 -13 -18 -22 -4 -24
-3 -15 13 12 23 13 23 28 5z m331 -32 c0 -2 -7 -4 -15 -4 -8 0 -15 4 -15 10 0
5 7 7 15 4 8 -4 15 -8 15 -10z m795 6 c3 -5 1 -10 -4 -10 -6 0 -11 5 -11 10 0
6 2 10 4 10 3 0 8 -4 11 -10z m-1095 -21 c0 -6 -4 -7 -10 -4 -5 3 -10 -1 -10
-9 0 -9 -4 -16 -10 -16 -14 0 -13 18 3 34 13 15 27 12 27 -5z m1514 -34 c3 -8
1 -15 -4 -15 -6 0 -10 7 -10 15 0 8 2 15 4 15 2 0 6 -7 10 -15z m-1587 -47
c-3 -8 -6 -5 -6 6 -1 11 2 17 5 13 3 -3 4 -12 1 -19z m543 6 c0 -8 -4 -12 -10
-9 -5 3 -10 10 -10 16 0 5 5 9 10 9 6 0 10 -7 10 -16z m585 -3 c3 -5 1 -12 -5
-16 -5 -3 -10 1 -10 9 0 18 6 21 15 7z m-1154 -44 c-10 -9 -11 -8 -5 6 3 10 9
15 12 12 3 -3 0 -11 -7 -18z m-75 -19 c-9 -12 -16 -19 -16 -15 0 11 24 47 28
42 2 -2 -3 -14 -12 -27z m1214 12 c0 -5 -4 -10 -10 -10 -5 0 -10 5 -10 10 0 6
5 10 10 10 6 0 10 -4 10 -10z m-20 -40 c0 -5 -7 -10 -16 -10 -8 0 -12 5 -9 10
3 6 10 10 16 10 5 0 9 -4 9 -10z m-1260 -8 c0 -5 -9 -19 -20 -32 -11 -12 -22
-31 -25 -41 -7 -22 -21 -25 -28 -5 -10 25 5 56 29 62 13 3 24 10 24 15 0 5 5
9 10 9 6 0 10 -4 10 -8z m1620 -22 c0 -5 -4 -10 -10 -10 -5 0 -10 5 -10 10 0
6 5 10 10 10 6 0 10 -4 10 -10z m-1630 -41 c0 -6 -6 -17 -14 -25 -8 -7 -12
-22 -9 -33 4 -17 -13 -39 -23 -29 -6 7 29 98 38 98 4 0 8 -5 8 -11z m220 0 c0
-6 -9 -13 -20 -16 -11 -3 -20 -12 -20 -19 0 -8 -4 -14 -10 -14 -14 0 -13 7 6
35 17 25 44 34 44 14z m-287 -30 c3 -12 3 -18 0 -15 -4 3 -12 1 -19 -5 -19
-16 -27 7 -8 25 20 20 21 20 27 -5z m-3 -39 c0 -5 -5 -10 -11 -10 -5 0 -7 5
-4 10 3 6 8 10 11 10 2 0 4 -4 4 -10z m230 -20 c0 -5 -5 -10 -11 -10 -5 0 -7
5 -4 10 3 6 8 10 11 10 2 0 4 -4 4 -10z m-308 -32 c-7 -7 -12 -8 -12 -2 0 14
12 26 19 19 2 -3 -1 -11 -7 -17z m68 -13 c0 -8 -4 -15 -10 -15 -5 0 -10 7 -10
15 0 8 5 15 10 15 6 0 10 -7 10 -15z m140 5 c0 -5 -4 -10 -10 -10 -5 0 -10 5
-10 10 0 6 5 10 10 10 6 0 10 -4 10 -10z m-192 -52 c16 33 26 39 37 22 4 -6
-5 -23 -19 -38 -54 -58 -66 -76 -62 -89 6 -16 -10 -18 -19 -2 -4 5 0 18 8 27
11 12 13 22 6 35 -7 11 -7 17 1 17 5 0 10 -5 10 -12 0 -6 2 -9 5 -6 7 6 -18
58 -28 58 -5 0 -5 5 -1 11 3 6 15 -3 27 -23 l20 -33 15 33z m-70 -10 c-2 -6
-10 -14 -16 -16 -7 -2 -10 2 -6 12 7 18 28 22 22 4z m1712 -8 c0 -5 -5 -10
-11 -10 -5 0 -7 5 -4 10 3 6 8 10 11 10 2 0 4 -4 4 -10z m-1719 -48 c-5 -10
-18 -25 -27 -33 -16 -12 -17 -12 -9 1 10 18 37 50 42 50 2 0 -1 -8 -6 -18z
m-45 -18 c-4 -9 -9 -15 -11 -12 -3 3 -3 13 1 22 4 9 9 15 11 12 3 -3 3 -13 -1
-22z m224 -28 c0 -3 -4 -8 -10 -11 -5 -3 -10 -1 -10 4 0 6 5 11 10 11 6 0 10
-2 10 -4z m-40 -63 c-1 -18 -18 -35 -24 -24 -4 6 -4 16 -1 21 7 12 25 13 25 3z
m-156 -28 c-4 -8 -8 -15 -10 -15 -2 0 -4 7 -4 15 0 8 4 15 10 15 5 0 7 -7 4
-15z m11 -34 c3 -5 1 -12 -5 -16 -5 -3 -10 1 -10 9 0 18 6 21 15 7z m-115 -43
l0 -21 23 21 c13 12 27 22 32 22 5 0 0 -7 -11 -15 -19 -15 -19 -15 0 -30 11
-8 16 -18 12 -22 -4 -4 -10 -3 -14 3 -4 6 -19 14 -34 18 -19 4 -28 13 -28 26
0 11 5 20 10 20 6 0 10 -10 10 -22z m-50 8 c0 -3 -4 -8 -10 -11 -5 -3 -10 -1
-10 4 0 6 5 11 10 11 6 0 10 -2 10 -4z m-153 -38 c-3 -7 -5 -2 -5 12 0 14 2
19 5 13 2 -7 2 -19 0 -25z m199 -63 c4 -14 4 -29 0 -32 -3 -4 -6 1 -6 10 0 28
-16 20 -45 -23 -15 -22 -31 -37 -36 -34 -5 3 3 17 17 32 14 15 30 37 35 50 11
29 27 28 35 -3z m-131 -5 c-3 -5 -11 -10 -16 -10 -6 0 -7 5 -4 10 3 6 11 10
16 10 6 0 7 -4 4 -10z m-25 -40 c0 -5 -5 -10 -11 -10 -5 0 -7 5 -4 10 3 6 8
10 11 10 2 0 4 -4 4 -10z m75 -60 c-3 -5 -13 -10 -21 -10 -8 0 -12 5 -9 10 3
6 13 10 21 10 8 0 12 -4 9 -10z m-32 -38 c-5 -4 -16 -17 -25 -30 -10 -15 -18
-19 -23 -13 -3 6 -2 11 3 11 6 0 8 8 6 18 -4 13 2 17 22 19 15 0 23 -2 17 -5z
m-58 -62 c3 -5 -1 -10 -10 -10 -9 0 -13 5 -10 10 3 6 8 10 10 10 2 0 7 -4 10
-10z m-150 -98 c-3 -3 -11 0 -18 7 -9 10 -8 11 6 5 10 -3 15 -9 12 -12z m85 8
c0 -5 -2 -10 -4 -10 -3 0 -8 5 -11 10 -3 6 -1 10 4 10 6 0 11 -4 11 -10z m-20
-20 c0 -5 -4 -10 -10 -10 -5 0 -10 5 -10 10 0 6 5 10 10 10 6 0 10 -4 10 -10z
m-70 -50 c0 -5 -5 -10 -11 -10 -5 0 -7 5 -4 10 3 6 8 10 11 10 2 0 4 -4 4 -10z
m77 -86 c-3 -3 -12 -4 -19 -1 -8 3 -5 6 6 6 11 1 17 -2 13 -5z m-22 -24 c3 -5
-1 -10 -10 -10 -9 0 -13 5 -10 10 3 6 8 10 10 10 2 0 7 -4 10 -10z"/>
<path d="M1770 1179 c0 -5 5 -7 10 -4 6 3 10 8 10 11 0 2 -4 4 -10 4 -5 0 -10
-5 -10 -11z"/>
<path d="M2334 3205 c8 -8 18 -15 22 -15 3 0 1 7 -6 15 -7 8 -17 15 -22 15 -5
0 -3 -7 6 -15z"/>
<path d="M1481 2036 c-6 -7 -8 -22 -5 -32 6 -16 4 -16 -15 4 -25 26 -51 29
-51 6 0 -13 3 -14 14 -5 9 8 16 8 20 2 4 -5 2 -12 -4 -16 -5 -3 -10 -16 -11
-28 l0 -22 -9 23 c-5 12 -14 22 -20 22 -12 0 -12 0 1 -38 9 -26 14 -30 32 -23
12 5 25 19 28 32 l7 24 1 -25 c1 -15 -3 -30 -9 -36 -11 -11 -2 -54 11 -54 10
0 12 16 9 71 -1 30 3 37 22 43 22 6 22 7 4 21 -11 8 -16 21 -13 30 8 19 3 19
-12 1z"/>
<path d="M3775 1650 c-3 -5 -1 -10 4 -10 6 0 11 5 11 10 0 6 -2 10 -4 10 -3 0
-8 -4 -11 -10z"/>
<path d="M3752 1570 c0 -14 2 -19 5 -12 2 6 2 18 0 25 -3 6 -5 1 -5 -13z"/>
<path d="M1690 1455 c-13 -14 -19 -25 -13 -25 6 0 18 11 27 25 9 14 15 25 13
25 -2 0 -14 -11 -27 -25z"/>
<path d="M1615 1349 c-4 -6 -5 -12 -2 -15 2 -3 7 2 10 11 7 17 1 20 -8 4z"/>
<path d="M1746 1288 c-23 -32 -20 -45 4 -18 19 21 26 40 16 40 -3 0 -12 -10
-20 -22z"/>
<path d="M2116 1294 c-4 -9 -4 -19 -1 -22 2 -3 7 3 11 12 4 9 4 19 1 22 -2 3
-7 -3 -11 -12z"/>
<path d="M2275 1260 c3 -5 11 -10 16 -10 6 0 7 5 4 10 -3 6 -11 10 -16 10 -6
0 -7 -4 -4 -10z"/>
<path d="M1538 1233 c-8 -10 -20 -31 -26 -48 l-13 -30 31 34 c16 18 30 40 30
47 0 18 -4 18 -22 -3z"/>
<path d="M2132 1230 c-7 -11 -8 -20 -3 -20 9 0 24 30 18 36 -1 2 -8 -6 -15
-16z"/>
<path d="M3559 1218 c-3 -42 -14 -58 -40 -58 -24 0 -26 -38 -3 -66 15 -18 15
-18 9 11 -4 21 -3 26 4 15 6 -8 11 -12 13 -10 19 30 30 49 39 70 5 13 15 28
22 32 6 4 8 10 4 15 -5 4 -12 1 -18 -7 -8 -13 -10 -13 -19 0 -8 13 -10 13 -11
-2z"/>
<path d="M1576 1144 c-5 -14 -4 -15 9 -4 17 14 19 20 6 20 -5 0 -12 -7 -15
-16z"/>
<path d="M1600 1080 c0 -5 5 -10 10 -10 6 0 10 5 10 10 0 6 -4 10 -10 10 -5 0
-10 -4 -10 -10z"/>
<path d="M1558 1016 c-10 -7 -18 -16 -18 -19 0 -12 28 4 34 19 6 17 6 17 -16
0z"/>
<path d="M3461 1014 c0 -11 3 -14 6 -6 3 7 2 16 -1 19 -3 4 -6 -2 -5 -13z"/>
<path d="M1520 955 c0 -8 4 -15 8 -15 5 0 9 7 9 15 0 8 -4 15 -9 15 -4 0 -8
-7 -8 -15z"/>
<path d="M1930 936 c0 -9 5 -16 10 -16 6 0 10 4 10 9 0 6 -4 13 -10 16 -5 3
-10 -1 -10 -9z"/>
<path d="M3360 860 c0 -5 7 -10 16 -10 8 0 12 5 9 10 -3 6 -10 10 -16 10 -5 0
-9 -4 -9 -10z"/>
<path d="M1335 779 c-4 -6 -5 -12 -2 -15 2 -3 7 2 10 11 7 17 1 20 -8 4z"/>
<path d="M1210 765 c0 -8 -4 -15 -10 -15 -5 0 -10 -5 -10 -11 0 -6 8 -9 18 -7
9 2 17 9 17 16 0 7 7 17 15 22 12 8 11 10 -7 10 -14 0 -23 -6 -23 -15z"/>
<path d="M1643 674 c-15 -16 -16 -24 -4 -24 8 0 24 30 19 35 -2 2 -9 -3 -15
-11z"/>
<path d="M1137 653 c-10 -9 -9 -23 2 -23 5 0 11 7 15 15 5 15 -5 20 -17 8z"/>
<path d="M1700 630 c0 -5 5 -10 10 -10 6 0 10 5 10 10 0 6 -4 10 -10 10 -5 0
-10 -4 -10 -10z"/>
<path d="M1144 587 c-8 -34 -2 -42 13 -18 6 10 8 24 3 31 -6 10 -10 7 -16 -13z"/>
<path d="M1090 516 c0 -8 -6 -16 -12 -19 -9 -3 -10 -8 -3 -15 7 -8 14 -4 22
13 6 15 7 27 2 31 -5 3 -9 -1 -9 -10z"/>
<path d="M1048 453 c-25 -30 -30 -43 -15 -43 14 0 44 46 35 55 -3 3 -12 -3
-20 -12z"/>
<path d="M1486 435 c-9 -26 -7 -32 5 -12 6 10 9 21 6 23 -2 3 -7 -2 -11 -11z"/>
<path d="M1511 364 c-11 -14 -22 -30 -25 -37 -3 -9 -7 -8 -15 3 -5 8 -14 11
-18 6 -4 -5 -2 -11 5 -13 6 -3 12 -9 12 -15 0 -6 -7 -8 -15 -4 -15 5 -19 -4
-16 -36 1 -10 -3 -18 -8 -18 -6 0 -11 6 -11 13 0 6 -7 -1 -15 -16 -8 -15 -12
-33 -10 -40 5 -15 -22 -53 -31 -44 -4 4 -1 14 7 24 12 15 12 16 -2 11 -9 -4
-22 -1 -29 5 -10 9 -11 7 -5 -13 11 -38 22 -45 47 -31 30 16 49 56 34 71 -8 8
-7 10 6 5 11 -4 18 0 22 13 4 11 13 22 20 25 8 3 20 18 28 34 8 15 22 40 32
56 23 34 14 35 -13 1z"/>
<path d="M1393 353 c-4 -10 -9 -20 -13 -23 -8 -7 -40 -58 -40 -65 0 -3 5 -5
10 -5 6 0 10 5 10 11 0 6 8 23 18 37 21 30 34 62 26 62 -2 0 -8 -8 -11 -17z"/>
<path d="M1399 318 c0 -2 -2 -10 -4 -18 -2 -8 -6 -24 -11 -35 -5 -15 -1 -13
14 7 23 28 28 48 12 48 -5 0 -10 -1 -11 -2z"/>
<path d="M1355 230 c-3 -6 1 -7 9 -4 18 7 21 14 7 14 -6 0 -13 -4 -16 -10z"/>
<path d="M1330 140 c0 -5 5 -10 11 -10 5 0 7 5 4 10 -3 6 -8 10 -11 10 -2 0
-4 -4 -4 -10z"/>
</g>
</svg>
